<?xml version="1.0" encoding="utf-8"?>
<!-- Generator: Adobe Illustrator 15.0.0, SVG Export Plug-In . SVG Version: 6.00 Build 0)  -->
<!DOCTYPE svg PUBLIC "-//W3C//DTD SVG 1.1//EN" "http://www.w3.org/Graphics/SVG/1.1/DTD/svg11.dtd">
<svg version="1.1" id="Layer_1" xmlns="http://www.w3.org/2000/svg" xmlns:xlink="http://www.w3.org/1999/xlink" x="0px" y="0px"
	 width="20.124px" height="16.043px" viewBox="0 0 20.124 16.043" enable-background="new 0 0 20.124 16.043" xml:space="preserve">
<path fill="#FFFFFF" d="M19.261,9.288c-0.063,0.076-0.163,0.126-0.263,0.138c-0.012,0-0.024,0-0.036,0
	c-0.103,0-0.189-0.024-0.263-0.088l-8.638-7.201L1.425,9.338c-0.087,0.063-0.188,0.102-0.3,0.088c-0.1-0.012-0.2-0.062-0.262-0.138
	L0.089,8.366c-0.137-0.163-0.112-0.425,0.05-0.562l8.974-7.476c0.524-0.438,1.373-0.438,1.898,0l3.046,2.545V0.44
	c0-0.225,0.175-0.4,0.398-0.4h2.396c0.224,0,0.399,0.175,0.399,0.4v5.092l2.734,2.272c0.162,0.136,0.187,0.399,0.049,0.562
	L19.261,9.288z M17.251,15.218c0,0.437-0.362,0.799-0.798,0.799H11.66v-4.793H8.464v4.793H3.671c-0.438,0-0.799-0.362-0.799-0.799
	v-5.99c0-0.025,0.013-0.05,0.013-0.076l7.177-5.916l7.177,5.916c0.013,0.026,0.013,0.051,0.013,0.076V15.218z"/>
</svg>
