<?xml version="1.0" encoding="utf-8"?>
<!-- Generator: Adobe Illustrator 15.0.0, SVG Export Plug-In . SVG Version: 6.00 Build 0)  -->
<!DOCTYPE svg PUBLIC "-//W3C//DTD SVG 1.1//EN" "http://www.w3.org/Graphics/SVG/1.1/DTD/svg11.dtd">
<svg version="1.1" id="Layer_1" xmlns="http://www.w3.org/2000/svg" xmlns:xlink="http://www.w3.org/1999/xlink" x="0px" y="0px"
	 width="330px" height="114.899px" viewBox="0 0 330 114.899" enable-background="new 0 0 330 114.899" xml:space="preserve">
<g>
	<path d="M218.538,58.113l12.909-34.945V13.78h-22.167l-1.174,3.911l-2.216-4.042h-13.561V1.783l-24.904,9.258v2.216
		c-0.913-0.782-2.608,0-2.608,0h-19.689v0.913c-16.82-5.086-23.992,4.954-23.992,4.824c-19.167-14.083-31.685,0.13-31.816,0
		c-10.822-10.823-25.947-4.564-25.817-4.564c-6.52-3.26-13.431-1.435-13.431-1.435s-7.823-0.13-7.954,0
		C35.857,2.435,22.036,2.566,22.036,2.566C16.298,1.783,0,2.957,0,2.957V113.53l25.557,0.13V99.447c0,0,0.977-0.326,1.047-0.382
		c7.695,22.545,25.423,13.29,25.292,13.421c7.171,3.52,12.648,0,12.648,0c8.866,4.042,13.952-0.261,14.082-0.001
		c10.692,6.389,17.994-1.955,17.994-1.695c13.952,7.954,26.86,0,26.86-0.13c6.65,5.998,21.646,2.869,21.646,2.869h60.632
		c0,0,1.044,0,1.174-0.13c13.952-1.565,11.605-17.734,11.605-17.864c-3.912-11.083-15.517-10.171-15.647-10.041
		c-0.391-11.605-5.216-13.953-5.216-13.953C217.234,69.718,218.538,58.113,218.538,58.113z M30.186,57.689
		c0,0-3.031-1.369-4.987-1.369V45.856c0,0,2.934-0.685,4.987-1.663C30.284,44.291,30.186,57.689,30.186,57.689z M57.568,67.859
		c0,0-7.725-2.836-15.647-1.271c0.098,0.099-2.25-4.206-5.574-6.65h19.168V53.68l2.053,1.76V67.859z M85.994,86.995
		c0,0-0.652,0.13-0.718,0.065c-1.108-0.522-2.151,0-2.151,0V72.326c0,0,9.649,0.13,9.714,0.13
		C88.21,76.302,85.994,86.995,85.994,86.995z M188.417,66.882l-23.862-0.195h-19.069c0,0-0.489,1.172-0.489,1.074
		c-11.54-4.889-21.221,2.152-21.221,2.055c-6.65-4.499-15.549-3.716-15.549-3.716v-5.574c5.574,0,12.225-5.476,12.126-5.378
		c7.824,8.41,24.351,4.302,24.351,4.302l0.88,0.587h24.839c0,0,0.098-6.552,0-6.65c5.378,8.899,17.994,7.237,17.994,7.237V66.882z"
		/>
	<path d="M0.391,2.957"/>
	<path fill="#FFFFFF" d="M8.214,10.911v40.943h8.997V37.641c0,0,11.997,1.304,16.951-6.781c4.955-8.084,1.304-19.82-13.039-20.341
		C6.781,9.998,8.214,10.911,8.214,10.911z"/>
	<path d="M17.211,18.865v10.301c0,0,9.649,2.217,9.649-4.824C26.861,17.3,20.08,19.125,17.211,18.865z"/>
	<path fill="#FFFFFF" d="M38.596,21.342v30.382h8.867V34.512c0,0,0.26-9.388,9.127-4.564c-0.13,0.13,3.651-7.432,3.651-7.432
		s-5.346-3.651-12.648,0v-1.305L38.596,21.342z"/>
	<ellipse fill="#FFFFFF" cx="73.215" cy="36.37" rx="14.669" ry="15.55"/>
	<path d="M67.519,35.123c0,0,0.318-6.674,5.818-6.674c5.501,0,5.109,6.626,5.109,6.626v4.058c0,0-0.586,5.55-5.061,5.55
		c-3.79,0-5.818-3.594-5.794-5.966L67.519,35.123z"/>
	<path fill="#FFFFFF" d="M98.446,62.628c0,0-0.097-11.785,0-11.785c4.107,2.25,10.17,1.174,9.975,1.174
		c11.54-2.641,11.148-15.354,11.148-15.354s0-15.06-13.985-15.549C91.601,20.625,90.231,33.24,90.231,33.24v29.436L98.446,62.628z"
		/>
	<path d="M99.204,35.123c0,0,0.318-6.674,5.819-6.674s5.109,6.626,5.109,6.626v4.058c0,0-0.586,5.55-5.061,5.55
		c-3.79,0-5.819-3.594-5.794-5.966L99.204,35.123z"/>
	<path fill="#FFFFFF" d="M137.172,52.408c-1.629-0.065-7.387-0.32-11.54-3.879c0,0-3.684-3.814-3.879-8.248l-0.065-6.096
		c0,0,0.685-5.248,4.335-8.932c0,0,3.912-3.814,7.562-3.976c0,0,6.194-1.109,10.758,1.825c1.043,0.652,3.292,1.858,4.988,5.15
		c1.695,3.293,1.703,5.477,1.703,5.477s0.611,4.205-0.758,6.031c0.032,0-19.689-0.032-19.689-0.032s0.522,3.781,3.032,4.466
		c2.51,0.685,4.922,1.434,8.9-0.652c0,0,0.847-0.359,2.151-1.532c0.065,0,3.357,6.585,3.357,6.585s-3.47,3.229-8.639,3.586
		L137.172,52.408z"/>
	<path d="M131.427,32.751h10.733c0,0-0.465-4.181-5.33-4.181C131.965,28.571,131.427,32.751,131.427,32.751z"/>
	<path fill="#FFFFFF" d="M153.406,21.342v30.382h8.867V34.512c0,0,0.26-9.388,9.127-4.564c-0.13,0.13,3.652-7.432,3.652-7.432
		s-5.347-3.651-12.649,0v-1.305L153.406,21.342z"/>
	<path fill="#FFFFFF" d="M175.606,16.518l8.411-3.179v8.557h7.872v7.139h-7.872v11.002v1.076c0,0-0.586,5.134,5.134,3.57
		c1.418-0.587,3.471-1.517,3.471-1.517v8.215c0,0-2.321,0.905-4.792,0.905c-2.469,0-3.813,0-3.813,0s-7.042-0.294-8.068-7.115
		C175.948,45.147,175.606,16.518,175.606,16.518z"/>
	<path fill="#FFFFFF" d="M192.769,22.189h8.705l6.552,16.625l6.356-16.625h8.606l-12.029,32.957c0,0-1.417,7.726-14.327,7.726
		c-0.049,0,0-7.481,0-7.481s7.433,0.489,7.48-3.57c0.049,0-0.146-1.32-0.782-3.032C201.57,44.095,192.769,22.189,192.769,22.189z"/>
	<path fill="#FFFFFF" d="M8.214,64.632v40.943h8.997V91.363c0,0,11.997,1.304,16.951-6.782c4.955-8.084,1.304-19.82-13.039-20.34
		C6.781,63.719,8.214,64.632,8.214,64.632z"/>
	<path d="M17.211,72.585v10.301c0,0,9.649,2.217,9.649-4.824S20.08,72.848,17.211,72.585z"/>
	<path fill="#FFFFFF" d="M38.205,76.498l1.89,6.781c0,0,9.323-3.651,12.061,1.174c-0.064,0-15.19-0.717-16.495,8.931
		c-0.064,0.066-0.064,5.152-0.064,5.152s0.457,7.3,10.757,7.3c0.065-0.063,4.368,0.131,7.498-2.346
		c0.065-0.065,4.498,5.933,9.845-0.717c-0.13,0-2.283-0.718-2.543-4.565c-0.26-3.846-0.456-13.104-0.456-13.104
		s-0.651-5.215-3.977-8.281c-3.324-3.063-9.453-2.347-11.604-2.281C42.964,74.607,40.421,75.585,38.205,76.498z"/>
	<path d="M48.832,91.787c0,0-4.433,0.391-4.661,3.488c-0.228,3.097,0.717,3.227,3.618,3.195c2.901-0.033,4.531-2.185,4.531-2.641
		s0-4.042,0-4.042S51.081,91.526,48.832,91.787z"/>
	<path fill="#FFFFFF" d="M66.044,62.872h8.475v34.945c0,0,0.131,3.194,3.521,3.781c-0.065,0.065-1.63,4.303-6.324,4.303
		c-4.694,0-5.542-3.585-5.542-4.694C66.174,100.1,66.044,62.872,66.044,62.872z"/>
	<circle fill="#FFFFFF" cx="86.483" cy="100.849" r="5.705"/>
	<path fill="#FFFFFF" d="M117.158,84.191l3.521-6.194c0,0-3.456-3.39-10.367-3.455c-6.91-0.066-11.474,3.977-11.474,3.977
		s-4.173,3.128-4.433,10.692c-0.261,7.562,2.151,14.017,10.627,16.559c2.477,0.718,10.562,1.826,15.647-3.063
		c0,0.065-3.064-7.171-3.064-7.171s-3.129,2.412-7.171,2.672c-4.042,0.262-6.715-1.89-6.976-5.672c0,0-0.717-3.911,0.717-7.171
		c2.217-4.173,8.997-2.934,8.997-2.934C115.137,82.756,117.158,84.191,117.158,84.191z"/>
	<ellipse fill="#FFFFFF" cx="136.195" cy="90.417" rx="14.669" ry="15.55"/>
	<path d="M130.498,89.17c0,0,0.318-6.674,5.819-6.674s5.109,6.625,5.109,6.625v4.059c0,0-0.587,5.549-5.061,5.549
		c-3.789,0-5.818-3.594-5.794-5.965L130.498,89.17z"/>
	<path fill="#FFFFFF" d="M170.034,84.582v20.798h8.67V84.42c0,0-0.083-2.561,3.616-2.561c3.701,0,3.751,2.722,3.751,2.722
		c-0.065-0.065,0,20.602,0,20.602h8.541V85.039c0,0,0.065-6.714-4.695-8.997c-3.78-1.565-8.735-2.608-14.016,1.304
		c-0.066,0.064-2.87-2.543-7.889-2.543c-5.02,0-7.237,2.087-7.237,2.087l-0.913-1.761l-6.259,0.065v30.121h8.541V84.387
		c0,0,1.368-2.494,3.976-2.494C168.728,81.893,170.034,84.582,170.034,84.582z"/>
	<g>
		<path fill="#FFFFFF" d="M200.525,97.297H197.8v-0.983h6.631v0.983h-2.737v7.973h-1.17V97.297z"/>
		<path fill="#FFFFFF" d="M212.549,101.337c-0.065-1.249-0.146-2.764-0.146-3.867h-0.026c-0.319,1.037-0.678,2.166-1.129,3.402
			l-1.582,4.345h-0.877l-1.462-4.266c-0.424-1.276-0.771-2.419-1.022-3.482h-0.026c-0.026,1.116-0.093,2.604-0.174,3.96l-0.239,3.84
			h-1.103l0.624-8.957h1.476l1.529,4.332c0.372,1.103,0.665,2.086,0.904,3.017h0.027c0.239-0.904,0.558-1.887,0.957-3.017
			l1.594-4.332h1.476l0.558,8.957h-1.143L212.549,101.337z"/>
	</g>
	<path d="M229.401,28.015c0,0,2.378-2.378,5.964-0.292c3.587,2.085,2.711,6.506,2.377,7.883c-0.333,1.376-1.417,4.546-1.417,4.546
		s1.209,1.21,1.542,1.793c0.042,0.083,16.934-27.026,19.394-30.863c0-0.042,17.392,4.713,17.392,4.713l-1.417-9.51l9.051,1.544
		l1.292-4.13c0,0,0.376-4.295,7.174-3.628c2.502,0.25,4.547,0.417,4.547,0.417s3.377-0.459,4.837,4.087
		c0,1.167,0.084,2.002-2.377,5.839c0.042,0,8.342,1.501,8.342,1.501l-8.885,9.635l-1.751-0.25l1.084,7.341
		c0,0,8.885-2.753,12.18,9.134c0.041,0,7.632-1.335,12.054-1.293c4.42,0.042,8.758,0.75,9.217,7.966c0,0.083-0.709,3.42-1.919,5.047
		c0,0,2.127,3.628-1.21,8.007c-3.336,4.379-4.754,5.797-4.754,5.797l-1.585-2.586c0,0-0.626,3.086-4.588,4.171
		c-3.962,1.084-7.257,1.793-7.257,1.793l-0.293-8.759c0,0-2.334,0.25-5.338-0.792c-0.042,0.083-11.72,7.883-11.72,7.883
		s1.377,11.178,2.503,15.515c0.041,0.042-6.423,0.584-12.721,0.626c-0.042,0-9.412,17.406-12.749,30.975
		c0,0.223-8.341-5.561-15.683-33.588c0,0.111-5.783-0.779-8.229-1.669c0,0-0.445-10.899,0.11-16.683
		c-0.11-0.111-9.453-4.56-9.453-4.56s-2.447,1.667-7.452,1.112c-5.004-0.556-7.452-3.336-7.452-3.336l-1.001-0.445l8.23-25.915
		L229.401,28.015z"/>
	<g>
		<defs>
			<path id="SVGID_1_" d="M254.4,70.233c8.487,27.559,6.046,21.746,13.004,35.328c0,0,2.628-16.965,12.191-29.447
				C279.46,76.07,254.4,70.233,254.4,70.233z"/>
		</defs>
		<use xlink:href="#SVGID_1_"  overflow="visible" fill="#DF3405"/>
		<clipPath id="SVGID_2_">
			<use xlink:href="#SVGID_1_"  overflow="visible"/>
		</clipPath>
		<path opacity="0.2" clip-path="url(#SVGID_2_)" d="M250.001,76.681c0,0,22.034,4.775,28.241,5.744
			c6.066,0.957,0.704-8.089,0.704-8.089l-28.014-3.437L250.001,76.681z"/>
	</g>
	<polygon fill="#FFB26F" points="253.418,55.003 233.318,46.061 232.813,49.926 253.037,59.07 	"/>
	<polygon fill="#FFB26F" points="300.966,49.049 285.155,59.628 286.016,63.573 303.337,51.995 	"/>
	
		<ellipse transform="matrix(-0.9981 0.0613 -0.0613 -0.9981 617.6 77.2511)" fill="#DF3405" cx="307.616" cy="48.094" rx="7.361" ry="5.627"/>
	<path fill="#DF3405" d="M305.991,43.316c0,0-1.687-6.557-2.736-8.157c-1.049-1.601-3.104-3.282-5.671-2.459
		c-1.451,0.375-2.241,0.661-2.241,0.661s-0.516,0.127,0.039,0.664c0.557,0.536,6.601,5.208,9.208,9.711
		C304.599,43.878,305.991,43.316,305.991,43.316z"/>
	<path fill="#DF3405" d="M305.159,42.94c0,0,5.938-1.697,11.009-2.008c5.072-0.312,8.74-1.013,9.524,1.699
		c0.618,1.532-0.408,3.403-0.408,3.403s-10.522-4.018-15.787-2.171L305.159,42.94z"/>
	<path fill="#DF3405" d="M312.814,45.182c0,0,4.91,0.935,7.84,2.944s4.712,3.136,3.749,5.289c-0.961,2.153-1.718,3.008-1.718,3.008
		s-4.892-7.598-9.229-9.282L312.814,45.182z"/>
	<path fill="#DF3405" d="M313.294,49.148c0,0,1.952,5.446,2.541,8.074c0.505,2.016,1.179,2.925-0.313,3.398
		c-1.494,0.472-2.76,0.787-2.76,0.787s-0.166-8.125-0.929-11.266C311.83,50.095,313.294,49.148,313.294,49.148z"/>
	<path fill="#FFB26F" d="M248.624,73.567c0,0,20.277,4.48,40.436,3.147c-0.179-0.2-4.421-17.873-0.511-32.001
		c-0.088-0.1-34.492-6.97-34.492-6.97S247.754,48.965,248.624,73.567z"/>
	<polygon fill="#FFB26F" points="282.046,14.248 280.581,22.626 287.082,24.452 290.706,15.018 	"/>
	<path fill="#D87632" d="M264.376,59.525c0,0,2.092,3.125,7.002,1.785c0.045,0.05-0.202,2.509-4.791,2.109
		c-4.591-0.4-5.503-1.813-5.177-2.482C261.738,60.266,263.517,59.567,264.376,59.525z"/>
	<path fill="#A2531D" d="M283.272,62.492l-1.581,4.827c0,0-20.44,10.949-29.854-10.039
		C251.841,57.208,263.683,79.345,283.272,62.492z"/>
	<path fill="#EDFFFB" d="M251.338,53.182c0,0,9.189,1.421,15.407,4.193c0.039-0.033,1.628-10.854,1.769-14.877l-13.527-1.687
		l-0.173-0.082C254.814,40.729,252.317,46.534,251.338,53.182z"/>
	<path fill="#EDFFFB" d="M269.219,57.74c0,0,4.103-0.569,16.1-0.118c-0.001,0.036,0.894-11.077,0.307-12.541l-14.078-2.005
		C271.547,43.076,269.672,52.701,269.219,57.74z"/>
	<g>
		<defs>
			<path id="SVGID_3_" d="M251.338,53.182c0,0,9.189,1.421,15.407,4.193c0.039-0.033,1.628-10.854,1.769-14.877l-13.527-1.687
				l-0.173-0.082C254.814,40.729,252.317,46.534,251.338,53.182z"/>
		</defs>
		<clipPath id="SVGID_4_">
			<use xlink:href="#SVGID_3_"  overflow="visible"/>
		</clipPath>
		
			<ellipse transform="matrix(0.9986 -0.0529 0.0529 0.9986 -2.3553 13.87)" clip-path="url(#SVGID_4_)" cx="261.006" cy="51.456" rx="3.348" ry="4.95"/>
	</g>
	<g>
		<defs>
			<path id="SVGID_5_" d="M269.219,57.74c0,0,4.103-0.569,16.1-0.118c-0.001,0.036,0.894-11.077,0.307-12.541l-14.078-2.005
				C271.547,43.076,269.672,52.701,269.219,57.74z"/>
		</defs>
		<clipPath id="SVGID_6_">
			<use xlink:href="#SVGID_5_"  overflow="visible"/>
		</clipPath>
		
			<ellipse transform="matrix(0.9479 0.3186 -0.3186 0.9479 31.4982 -85.2603)" clip-path="url(#SVGID_6_)" cx="276.357" cy="53.648" rx="3.348" ry="4.949"/>
	</g>
	<g>
		<defs>
			<path id="SVGID_7_" d="M248.624,73.567c0,0,20.277,4.48,40.436,3.147c-0.179-0.2-4.421-17.873-0.511-32.001
				c-0.088-0.1-34.492-6.97-34.492-6.97S247.754,48.965,248.624,73.567z"/>
		</defs>
		<clipPath id="SVGID_8_">
			<use xlink:href="#SVGID_7_"  overflow="visible"/>
		</clipPath>
		<path opacity="0.15" clip-path="url(#SVGID_8_)" d="M251.133,39.658l-2.093,8.53c0,0,20.265-1.515,40.236,4.849
			c-0.089-0.101,1.26-8.105,1.26-8.105s-17.746-6.989-39.432-5.56"/>
	</g>
	<circle fill="#FFFFFF" cx="262.079" cy="48.222" r="1.406"/>
	<circle fill="#FFFFFF" cx="278.137" cy="50.527" r="1.406"/>
	<polygon fill="#D87632" points="281.858,14.617 281.654,16.364 289.65,17.901 290.438,15.904 	"/>
	<polygon fill="#A2531D" points="278.159,11.321 278.658,14.801 295.643,17.127 297.885,14.696 	"/>
	<path fill="#DF3405" d="M242.872,41.72c0,0,25.748,2.152,52.521,9.313c-0.379-0.023-1.066-10.532-3.69-26.678
		c-0.011,0.189-32.593-8.471-32.593-8.471L242.872,41.72z"/>
	<path fill="#DF3405" d="M285.101,12.937l2.506-8.268c0,0,0.038-0.64,1.461-0.552c1.422,0.088,5.323,0.47,5.323,0.47
		s2.442-0.278,1.271,1.362c-0.887,1.659-5.221,8.314-5.221,8.314L285.101,12.937z"/>
	<path fill="#DF3405" d="M235.73,47.332c0,0-0.756-5.273-6.096-6.006c-0.021-0.048-2.102-0.799-3.095,2.929
		c-0.993,3.727-2.412,6.341-2.412,6.341s-1.175,1.741,5.339,1.992C235.982,52.839,235.632,47.859,235.73,47.332z"/>
	<path fill="#DF3405" d="M226.862,43.292c0,0,1.498-3.963,1.996-5.541c0.498-1.579,1.75-3.695,2.086-4.691
		c0.335-0.997,1.242-3.257,2.621-1.218c1.38,2.041-2.945,11.399-2.945,11.399s-0.246-2.418-0.972,0.283
		C228.923,46.227,226.862,43.292,226.862,43.292z"/>
	
		<ellipse transform="matrix(-0.9224 -0.3862 0.3862 -0.9224 414.6196 181.972)" fill="#DF3405" cx="225.588" cy="49.339" rx="2.661" ry="2.81"/>
</g>
</svg>
