<?xml version="1.0" encoding="utf-8"?>
<!DOCTYPE svg PUBLIC "-//W3C//DTD SVG 1.1//EN" "http://www.w3.org/Graphics/SVG/1.1/DTD/svg11.dtd">
<svg version="1.1" id="Layer_1" xmlns="http://www.w3.org/2000/svg" xmlns:xlink="http://www.w3.org/1999/xlink" x="0px" y="0px"
	 width="330px" height="121.797px" viewBox="0 0 330 121.797" enable-background="new 0 0 330 121.797" xml:space="preserve">
<g>
	<g>
		<g>
			<g>
				<path fill="#010101" d="M9.585,9.288"/>
				<path fill="#010101" d="M216.131,61.511l12.223-33.087v-8.889h-20.987l-1.111,3.704l-2.099-3.827h-12.84V8.177l-23.58,8.766
					v2.099c-0.864-0.741-2.469,0-2.469,0h-18.642v0.864c-15.926-4.815-22.716,4.691-22.716,4.567c-18.148-13.333-30,0.124-30.124,0
					c-10.247-10.247-24.568-4.321-24.445-4.321c-6.173-3.086-12.716-1.358-12.716-1.358s-7.408-0.124-7.531,0
					c-5.926-10-19.012-9.876-19.012-9.876c-5.433-0.741-20.865,0.37-20.865,0.37V113.98l24.198,0.123v-13.457
					c0,0,0.925-0.309,0.99-0.361c7.286,21.348,24.072,12.584,23.948,12.708c6.791,3.333,11.976,0,11.976,0
					c8.396,3.827,13.21-0.247,13.334-0.001c10.123,6.05,17.037-1.852,17.037-1.604c13.21,7.53,25.432,0,25.432-0.123
					c6.296,5.68,20.494,2.717,20.494,2.717h57.407c0,0,0.987,0,1.11-0.125c13.211-1.48,10.988-16.789,10.988-16.914
					c-3.703-10.492-14.691-9.629-14.814-9.506c-0.371-10.987-4.938-13.211-4.938-13.211
					C214.896,72.499,216.131,61.511,216.131,61.511z M37.795,61.11c0,0-2.871-1.296-4.722-1.296v-9.908c0,0,2.778-0.648,4.722-1.574
					C37.888,48.424,37.795,61.11,37.795,61.11z M63.722,70.739c0,0-7.315-2.687-14.815-1.203c0.092,0.093-2.129-3.981-5.278-6.298
					h18.148v-5.925l1.944,1.667L63.722,70.739L63.722,70.739z M90.636,88.857c0,0-0.617,0.123-0.679,0.062
					c-1.049-0.494-2.037,0-2.037,0V74.968c0,0,9.136,0.124,9.198,0.124C92.735,78.732,90.636,88.857,90.636,88.857z M187.611,69.813
					c-5.186-1.944-11.666,0.834-11.666,0.74c-4.444-2.5-10.926-0.925-10.926-0.925h-18.056c0,0-0.463,1.11-0.463,1.019
					c-10.926-4.631-20.093,2.037-20.093,1.944c-6.296-4.26-14.722-3.521-14.722-3.521v-5.276c5.277,0,11.574-5.185,11.481-5.093
					c7.408,7.963,23.056,4.074,23.056,4.074l0.833,0.556h23.519c0,0,0.093-6.204,0-6.296c5.093,8.425,17.037,6.851,17.037,6.851
					V69.813L187.611,69.813z"/>
				<path fill="#FFFFFF" d="M16.993,16.819v38.766h8.519V42.128c0,0,11.358,1.234,16.049-6.42s1.235-18.766-12.346-19.259
					C15.635,15.955,16.993,16.819,16.993,16.819z"/>
				<path fill="#010101" d="M25.512,24.35v9.753c0,0,9.136,2.099,9.136-4.568C34.647,22.869,28.228,24.597,25.512,24.35z"/>
				<path fill="#FFFFFF" d="M45.759,26.696v28.766h8.395V39.165c0,0,0.247-8.889,8.642-4.32c-0.124,0.123,3.457-7.037,3.457-7.037
					s-5.062-3.457-11.975,0v-1.235L45.759,26.696z"/>
				<ellipse fill="#FFFFFF" cx="78.537" cy="40.924" rx="13.889" ry="14.723"/>
				<path fill="#010101" d="M73.143,39.744c0,0,0.301-6.32,5.509-6.32s4.838,6.273,4.838,6.273v3.843c0,0-0.556,5.255-4.792,5.255
					c-3.588,0-5.509-3.403-5.486-5.648L73.143,39.744z"/>
				<path fill="#FFFFFF" d="M102.426,65.785c0,0-0.092-11.157,0-11.157c3.889,2.13,9.63,1.111,9.444,1.111
					c10.927-2.5,10.556-14.537,10.556-14.537s0-14.259-13.241-14.722c-13.241-0.463-14.537,11.481-14.537,11.481v27.871
					L102.426,65.785z"/>
				<path fill="#010101" d="M103.144,39.744c0,0,0.301-6.32,5.51-6.32c5.208,0,4.837,6.273,4.837,6.273v3.843
					c0,0-0.556,5.255-4.792,5.255c-3.588,0-5.509-3.403-5.486-5.648L103.144,39.744z"/>
				<path fill="#FFFFFF" d="M139.093,56.109c-1.542-0.062-6.994-0.303-10.926-3.673c0,0-3.488-3.611-3.673-7.809l-0.062-5.771
					c0,0,0.649-4.969,4.105-8.457c0,0,3.704-3.611,7.161-3.766c0,0,5.864-1.049,10.185,1.729c0.988,0.617,3.117,1.759,4.723,4.876
					c1.606,3.117,1.613,5.186,1.613,5.186s0.578,3.981-0.719,5.71c0.031,0-18.642-0.031-18.642-0.031s0.495,3.58,2.871,4.228
					s4.661,1.358,8.426-0.617c0,0,0.802-0.339,2.037-1.451c0.062,0,3.179,6.234,3.179,6.234s-3.285,3.058-8.18,3.396L139.093,56.109
					z"/>
				<path fill="#010101" d="M133.653,37.498h10.162c0,0-0.439-3.958-5.046-3.958S133.653,37.498,133.653,37.498z"/>
				<path fill="#FFFFFF" d="M154.464,26.696v28.766h8.395V39.165c0,0,0.247-8.889,8.643-4.32c-0.123,0.123,3.457-7.037,3.457-7.037
					s-5.063-3.457-11.976,0v-1.235L154.464,26.696z"/>
				<path fill="#FFFFFF" d="M175.482,22.128l7.963-3.009v8.102h7.453v6.759h-7.453v10.417v1.019c0,0-0.557,4.861,4.861,3.38
					c1.342-0.556,3.286-1.436,3.286-1.436v7.778c0,0-2.198,0.856-4.536,0.856c-2.339,0-3.611,0-3.611,0s-6.666-0.278-7.639-6.736
					C175.807,49.234,175.482,22.128,175.482,22.128z"/>
				<path fill="#FFFFFF" d="M191.732,27.498h8.24l6.203,15.741l6.02-15.741h8.147l-11.389,31.204c0,0-1.343,7.313-13.565,7.313
					c-0.046,0,0-7.083,0-7.083s7.037,0.463,7.084-3.38c0.047,0-0.139-1.25-0.74-2.87C200.064,48.239,191.732,27.498,191.732,27.498z
					"/>
				<path fill="#FFFFFF" d="M16.993,67.684v38.767h8.519V92.992c0,0,11.358,1.234,16.049-6.42s1.235-18.766-12.346-19.26
					C15.635,66.818,16.993,67.684,16.993,67.684z"/>
				<path fill="#010101" d="M25.512,75.214v9.754c0,0,9.136,2.101,9.136-4.567C34.647,73.732,28.228,75.462,25.512,75.214z"/>
				<path fill="#FFFFFF" d="M45.388,78.918l1.79,6.421c0,0,8.828-3.457,11.42,1.111c-0.062,0-14.383-0.681-15.617,8.454
					c-0.062,0.063-0.062,4.879-0.062,4.879s0.432,6.912,10.185,6.912c0.062-0.062,4.136,0.123,7.099-2.221
					c0.062-0.063,4.259,5.616,9.321-0.68c-0.124,0-2.161-0.68-2.408-4.32c-0.247-3.644-0.432-12.408-0.432-12.408
					s-0.618-4.938-3.766-7.84c-3.148-2.9-8.951-2.223-10.988-2.16C49.895,77.129,47.487,78.055,45.388,78.918z"/>
				<path fill="#010101" d="M55.45,93.395c0,0-4.198,0.369-4.414,3.303c-0.216,2.934,0.679,3.057,3.426,3.023
					c2.747-0.029,4.291-2.066,4.291-2.498c0-0.434,0-3.828,0-3.828S57.58,93.146,55.45,93.395z"/>
				<path fill="#FFFFFF" d="M71.747,66.018h8.025v33.086c0,0,0.124,3.024,3.333,3.582c-0.062,0.062-1.543,4.073-5.988,4.073
					c-4.444,0-5.247-3.396-5.247-4.444S71.747,66.018,71.747,66.018z"/>
				<circle fill="#FFFFFF" cx="91.099" cy="101.975" r="5.402"/>
				<path fill="#FFFFFF" d="M120.143,86.202l3.333-5.864c0,0-3.271-3.209-9.815-3.271c-6.543-0.062-10.864,3.767-10.864,3.767
					s-3.951,2.963-4.198,10.123s2.037,13.271,10.062,15.68c2.346,0.679,10,1.729,14.815-2.901c0,0.063-2.901-6.789-2.901-6.789
					s-2.963,2.283-6.79,2.531c-3.827,0.246-6.358-1.791-6.605-5.371c0,0-0.679-3.703,0.679-6.791
					c2.099-3.95,8.519-2.776,8.519-2.776C118.229,84.844,120.143,86.202,120.143,86.202z"/>
				<ellipse fill="#FFFFFF" cx="138.167" cy="92.097" rx="13.889" ry="14.723"/>
				<path fill="#010101" d="M132.773,90.917c0,0,0.301-6.319,5.51-6.319c5.208,0,4.838,6.273,4.838,6.273v3.843
					c0,0-0.556,5.254-4.792,5.254c-3.588,0-5.509-3.401-5.486-5.647L132.773,90.917z"/>
				<path fill="#FFFFFF" d="M170.207,86.572v19.691h8.209V86.419c0,0-0.079-2.424,3.425-2.424c3.503,0,3.552,2.577,3.552,2.577
					c-0.063-0.063,0,19.506,0,19.506h8.086V87.005c0,0,0.063-6.356-4.443-8.519c-3.581-1.481-8.271-2.471-13.271,1.234
					c-0.063,0.062-2.718-2.408-7.47-2.408c-4.753,0-6.853,1.977-6.853,1.977l-0.864-1.667l-5.926,0.062v28.52h8.087V86.389
					c0,0,1.294-2.361,3.764-2.361C168.973,84.027,170.207,86.572,170.207,86.572z"/>
				<g>
					<path fill="#FFFFFF" d="M199.076,98.611h-2.58V97.68h6.277v0.932h-2.592v7.549h-1.105V98.611z"/>
					<path fill="#FFFFFF" d="M210.461,102.438c-0.063-1.184-0.139-2.604-0.126-3.662h-0.037c-0.29,0.994-0.642,2.052-1.069,3.222
						l-1.496,4.114H206.9l-1.371-4.039c-0.403-1.194-0.742-2.289-0.981-3.297h-0.024c-0.025,1.058-0.088,2.479-0.164,3.75
						l-0.227,3.636h-1.045l0.592-8.479h1.396l1.447,4.103c0.352,1.044,0.642,1.976,0.854,2.856h0.037
						c0.214-0.855,0.517-1.787,0.894-2.856l1.51-4.103h1.396l0.528,8.479h-1.069L210.461,102.438z"/>
				</g>
				<path fill="#010101" d="M226.417,33.013c0,0,2.251-2.251,5.647-0.276c3.396,1.974,2.565,6.16,2.25,7.463
					c-0.314,1.303-1.342,4.304-1.342,4.304s1.145,1.145,1.461,1.698c0.039,0.079,16.032-25.589,18.362-29.222
					c0-0.04,16.468,4.462,16.468,4.462l-1.344-9.003l8.569,1.461l1.225-3.91c0,0,0.354-4.067,6.792-3.435
					c2.369,0.236,4.305,0.395,4.305,0.395s3.198-0.434,4.58,3.87c0,1.106,0.08,1.896-2.25,5.529c0.039,0,7.897,1.421,7.897,1.421
					l-8.411,9.122l-1.659-0.237l1.027,6.95c0,0,8.411-2.606,11.53,8.648c0.039,0,7.227-1.264,11.412-1.224
					c4.187,0.04,8.293,0.71,8.728,7.542c0,0.079-0.671,3.238-1.815,4.778c0,0,2.014,3.436-1.146,7.583
					c-3.159,4.146-4.501,5.488-4.501,5.488l-1.501-2.447c0,0-0.594,2.922-4.344,3.948c-3.752,1.027-6.871,1.698-6.871,1.698
					l-0.276-8.293c0,0-2.212,0.236-5.056-0.75c-0.039,0.079-11.096,7.463-11.096,7.463s1.303,10.584,2.368,14.689
					c0.039,0.039-6.081,0.554-12.044,0.592c-0.04,0-8.912,16.48-12.07,29.328c0,0.211-7.897-5.266-14.849-31.801
					c0,0.104-5.476-0.738-7.792-1.58c0,0-0.422-10.319,0.104-15.797c-0.104-0.104-8.949-4.317-8.949-4.317s-2.317,1.58-7.057,1.053
					c-4.738-0.526-7.056-3.159-7.056-3.159l-0.948-0.421l7.793-24.537L226.417,33.013z"/>
				<path fill="#DE3926" d="M262.398,106.436c0,0,2.488-16.063,11.543-27.881c-0.127-0.041-23.854-5.568-23.854-5.568
					C258.121,99.08,255.813,93.575,262.398,106.436z"/>
				<path opacity="0.2" fill="#010101" enable-background="new    " d="M250.418,74.063c0.736,2.402,1.385,4.526,1.957,6.412
					c5.521,1.172,13.285,2.793,17.907,3.645c1.079-1.904,2.295-3.782,3.659-5.563c-0.072-0.024-7.834-1.834-14.483-3.386
					L250.418,74.063z"/>
				<polygon fill="#FBB170" points="249.156,58.567 230.125,50.101 229.646,53.759 248.796,62.417 				"/>
				<polygon fill="#FBB170" points="294.177,52.929 279.205,62.945 280.02,66.682 296.42,55.719 				"/>
				
					<ellipse transform="matrix(0.0613 0.9981 -0.9981 0.0613 333.9898 -251.0669)" fill="#DE3926" cx="300.476" cy="52.034" rx="5.328" ry="6.969"/>
				<path fill="#DE3926" d="M298.934,47.502c0,0-1.598-6.208-2.592-7.724c-0.994-1.515-2.938-3.108-5.367-2.328
					c-1.375,0.354-2.123,0.626-2.123,0.626s-0.488,0.12,0.037,0.628c0.527,0.508,6.25,4.932,8.719,9.194
					C297.614,48.033,298.934,47.502,298.934,47.502z"/>
				<path fill="#DE3926" d="M298.146,47.145c0,0,5.621-1.606,10.424-1.901c4.802-0.294,8.273-0.958,9.019,1.608
					c0.584,1.451-0.388,3.222-0.388,3.222s-9.965-3.803-14.947-2.056L298.146,47.145z"/>
				<path fill="#DE3926" d="M305.395,49.268c0,0,4.648,0.885,7.422,2.787c2.774,1.902,4.461,2.97,3.551,5.008
					c-0.909,2.038-1.627,2.848-1.627,2.848s-4.631-7.193-8.736-8.789L305.395,49.268z"/>
				<path fill="#DE3926" d="M305.85,53.023c0,0,1.849,5.157,2.405,7.645c0.478,1.908,1.116,2.77-0.298,3.217
					s-2.611,0.746-2.611,0.746s-0.158-7.693-0.88-10.667C304.462,53.919,305.85,53.023,305.85,53.023z"/>
				<path fill="#FBB170" d="M244.617,76.145c0,0,19.197,4.241,38.285,2.979c-0.168-0.188-4.187-16.923-0.482-30.299
					c-0.084-0.095-32.658-6.6-32.658-6.6S243.794,52.85,244.617,76.145z"/>
				<polygon fill="#FBB170" points="276.264,19.979 274.875,27.911 281.029,29.64 284.462,20.707 				"/>
				<path fill="#D87730" d="M259.532,62.848c0,0,1.979,2.959,6.63,1.69c0.043,0.048-0.189,2.375-4.536,1.996
					c-4.347-0.38-5.21-1.716-4.901-2.351C257.034,63.55,258.721,62.889,259.532,62.848z"/>
				<path fill="#A25525" d="M277.423,65.657l-1.496,4.569c0,0-19.354,10.366-28.268-9.504
					C247.662,60.655,258.876,81.613,277.423,65.657z"/>
				<path fill="#EFF8F7" d="M247.188,56.842c0,0,8.701,1.345,14.588,3.97c0.035-0.032,1.543-10.277,1.676-14.086l-12.809-1.597
					l-0.164-0.078C250.479,45.051,248.114,50.548,247.188,56.842z"/>
				<path fill="#EFF8F7" d="M264.117,61.159c0,0,3.885-0.539,15.244-0.112c-0.002,0.034,0.847-10.488,0.289-11.874l-13.33-1.899
					C266.32,47.273,264.545,56.387,264.117,61.159z"/>
				<g>
					<g>
						<defs>
							<path id="SVGID_1_" d="M247.287,57.327c0,0,8.76,0.883,14.777,3.193c0.033-0.034,0.996-10.344,0.928-14.155l-12.875-0.917
								l-0.168-0.069C249.949,45.378,247.879,50.993,247.287,57.327z"/>
						</defs>
						<clipPath id="SVGID_2_">
							<use xlink:href="#SVGID_1_"  overflow="visible"/>
						</clipPath>
						
							<ellipse transform="matrix(-0.0528 -0.9986 0.9986 -0.0528 214.7462 314.1093)" clip-path="url(#SVGID_2_)" fill="#010101" cx="256.34" cy="55.211" rx="4.687" ry="3.17"/>
					</g>
				</g>
				<g>
					<g>
						<defs>
							<path id="SVGID_3_" d="M263.234,58.794c0,0,3.854,0.726,14.485,4.749c-0.013,0.031,4.144-9.672,4.057-11.163l-12.03-6.046
								C269.746,46.333,265.16,54.407,263.234,58.794z"/>
						</defs>
						<clipPath id="SVGID_4_">
							<use xlink:href="#SVGID_3_"  overflow="visible"/>
						</clipPath>
						
							<ellipse transform="matrix(0.3185 -0.9479 0.9479 0.3185 130.3138 295.8011)" clip-path="url(#SVGID_4_)" fill="#010101" cx="270.875" cy="57.272" rx="4.687" ry="3.171"/>
					</g>
				</g>
				<circle fill="#FFFFFF" cx="257.357" cy="52.146" r="1.332"/>
				<circle fill="#FFFFFF" cx="272.561" cy="54.329" r="1.332"/>
				<polygon fill="#D87730" points="276.084,20.328 275.893,21.982 283.461,23.438 284.207,21.547 				"/>
				<polygon fill="#A25525" points="272.581,17.207 273.055,20.502 289.136,22.706 291.259,20.404 				"/>
				<path opacity="0.15" fill="#010101" enable-background="new    " d="M257.133,43.7c-2.581-0.13-5.273-0.158-8.043-0.046
					c-0.652,1.527-1.673,4.295-2.583,8.382c4.657-0.185,19.505-0.343,34.611,4.063c0.237-2.457,0.649-4.917,1.302-7.274
					C282.361,48.759,266.747,45.624,257.133,43.7z"/>
				<path fill="#DE3926" d="M239.171,45.99c0,0,24.378,2.037,49.729,8.818c-0.359-0.021-1.01-9.972-3.494-25.259
					c-0.012,0.18-30.859-8.02-30.859-8.02L239.171,45.99z"/>
				<path fill="#DE3926" d="M279.154,18.737l2.373-7.827c0,0,0.035-0.606,1.383-0.523c1.346,0.083,5.04,0.445,5.04,0.445
					s2.313-0.264,1.204,1.29c-0.84,1.57-4.942,7.873-4.942,7.873L279.154,18.737z"/>
				<path fill="#DE3926" d="M232.409,51.303c0,0-0.716-4.992-5.771-5.687c-0.02-0.046-1.99-0.756-2.932,2.773
					c-0.939,3.529-2.284,6.004-2.284,6.004s-1.112,1.648,5.058,1.886C232.648,56.517,232.316,51.802,232.409,51.303z"/>
				<path fill="#DE3926" d="M224.014,47.479c0,0,1.418-3.752,1.889-5.247c0.473-1.495,1.658-3.498,1.977-4.441
					c0.316-0.944,1.176-3.084,2.48-1.153c1.307,1.932-2.787,10.793-2.787,10.793s-0.234-2.29-0.922,0.269
					C225.963,50.257,224.014,47.479,224.014,47.479z"/>
				
					<ellipse transform="matrix(-0.3864 0.9223 -0.9223 -0.3864 357.9529 -131.7199)" fill="#DE3926" cx="222.792" cy="53.211" rx="2.66" ry="2.519"/>
			</g>
		</g>
	</g>
</g>
</svg>
